<?xml version="1.0" standalone="no"?><!DOCTYPE svg PUBLIC "-//W3C//DTD SVG 1.1//EN" "http://www.w3.org/Graphics/SVG/1.1/DTD/svg11.dtd"><svg t="1529986257354" class="icon" style="" viewBox="0 0 4559 1024" version="1.1" xmlns="http://www.w3.org/2000/svg" p-id="6158" xmlns:xlink="http://www.w3.org/1999/xlink" width="890.4296875" height="200"><defs><style type="text/css"></style></defs><path d="M3080.013913 842.351304h706.56v-94.831304H3173.509565v-184.32h493.746087v-97.057391H3173.509565V281.377391h613.064348V186.991304H3080.013913v655.36zM2960.695652 281.377391V186.991304H2251.464348v94.831305h554.740869L2251.464348 747.52v94.831304H2960.695652v-94.831304H2408.626087L2960.695652 281.377391zM4559.026087 186.991304h-121.544348l-205.245217 253.328696L4026.991304 186.991304h-124.215652l265.794783 330.351305-265.794783 325.008695h124.215652l205.245218-253.328695 205.245217 253.328695h121.544348l-265.794783-325.008695L4559.026087 186.991304zM1699.394783 186.991304l-324.118261 655.36h106.406956l48.083479-94.831304H1874.365217L1826.281739 650.017391h-248.431304l177.196522-360.626087 273.363478 552.96h106.406956L1811.144348 186.991304h-111.749565z" fill="#FFFFFF" p-id="6159"></path><path d="M893.996522 578.337391h-15.137392l-278.706087-378.88c17.808696-20.48 30.274783-48.528696 30.274783-79.248695 0-69.008696-52.98087-120.208696-118.873043-120.208696S392.681739 53.871304 392.681739 120.208696c0 36.062609 17.808696 69.008696 43.186087 89.488695L184.765217 660.257391h-7.568695C81.029565 660.257391 0 742.622609 0 842.351304S81.029565 1024 179.867826 1024s179.867826-81.92 179.867826-181.648696c0-12.911304-2.671304-25.822609-4.897391-38.288695L458.573913 716.8c15.137391 12.911304 35.617391 23.151304 55.652174 23.151304 45.412174 0 83.70087-38.288696 83.70087-84.591304 0-48.528696-35.617391-86.817391-83.70087-84.591304-45.412174 0-83.70087 35.617391-83.70087 84.591304 0 5.342609 0 10.24 2.671305 17.808696l-116.646957 40.96L496.417391 240.417391c4.897391 0 12.466087 2.671304 17.808696 2.671305 12.466087 0 25.377391-2.671304 35.617391-5.342609l225.28 412.271304c-12.466087 23.151304-20.48 48.528696-20.48 76.577392 0 81.92 68.563478 143.36 144.250435 143.36s142.024348-61.44 142.024348-143.36c-2.671304-81.474783-70.789565-148.257391-146.921739-148.257392z" fill="#ffffff" p-id="6160"></path></svg>